Coordinates
version=1
nRows=8
nColumns=40
inDegrees=yes

Units are S.I. units (second, meters, Newtons, ...)
If the header above contains a line with 'inDegrees', this indicates whether rotational values are in degrees (yes) or radians (no).

endheader
time	pelvis_tilt	pelvis_list	pelvis_rotation	pelvis_tx	pelvis_ty	pelvis_tz	hip_flexion_r	hip_adduction_r	hip_rotation_r	knee_angle_r	knee_angle_r_beta	ankle_angle_r	subtalar_angle_r	mtp_angle_r	hip_flexion_l	hip_adduction_l	hip_rotation_l	knee_angle_l	knee_angle_l_beta	ankle_angle_l	subtalar_angle_l	mtp_angle_l	lumbar_extension	lumbar_bending	lumbar_rotation	arm_flex_r	arm_add_r	arm_rot_r	elbow_flex_r	pro_sup_r	wrist_flex_r	wrist_dev_r	arm_flex_l	arm_add_l	arm_rot_l	elbow_flex_l	pro_sup_l	wrist_flex_l	wrist_dev_l
      4.35000000	    -30.26347201	      3.96284477	      2.37894390	     -0.32825442	      0.73913113	     -1.05975922	     25.23189517	    -12.61068484	     -4.46589415	     95.05312879	      1.65899006	    -34.73469732	      0.00000000	      0.00000000	     79.74197580	      4.99446526	    -11.47434203	     90.72436264	      1.58343884	     30.28697000	      0.00000000	      0.00000000	     -1.36788639	     -6.65593857	     -0.66964665	     89.91253238	    -19.27024488	     19.70804038	     52.89182379	     85.45919298	      0.00000000	      0.00000000	     89.93291612	    -20.42237953	     25.49784550	     48.40751411	     83.90343433	      0.00000000	      0.00000000
      4.35500000	    -30.30827502	      3.97522727	      2.38194427	     -0.32840704	      0.73870042	     -1.05973106	     25.31178838	    -12.63382823	     -4.43592888	     95.12037732	      1.66016377	    -34.64805165	      0.00000000	      0.00000000	     79.85066034	      5.02302858	    -11.45718660	     90.78610550	      1.58451646	     30.17105430	      0.00000000	      0.00000000	     -1.36613946	     -6.65911535	     -0.73209403	     89.91218351	    -19.14548244	     19.41635431	     52.90670418	     86.46140782	      0.00000000	      0.00000000	     89.93302603	    -20.38254135	     25.15520162	     48.44216132	     84.97891179	      0.00000000	      0.00000000
      4.36000000	    -30.35143779	      4.00680295	      2.37816810	     -0.32844489	      0.73824130	     -1.05975060	     25.37463838	    -12.65932770	     -4.36885119	     95.16193195	      1.66088904	    -34.74408610	      0.00000000	      0.00000000	     79.92581001	      5.04992933	    -11.46552085	     90.85522285	      1.58572278	     30.29648063	      0.00000000	      0.00000000	     -1.35648303	     -6.69919606	     -0.69607205	     89.91255474	    -19.18031039	     19.44062132	     52.92739421	     85.90899109	      0.00000000	      0.00000000	     89.93358062	    -20.35488007	     25.16936985	     48.51578553	     84.33718635	      0.00000000	      0.00000000
      4.36500000	    -30.41455599	      3.98962279	      2.41127631	     -0.32847804	      0.73776712	     -1.05976490	     25.43077721	    -12.60639467	     -4.31859134	     95.17791180	      1.66116794	    -34.57235607	      0.00000000	      0.00000000	     80.04492524	      5.10789300	    -11.41643877	     90.92268915	      1.58690029	     30.28548813	      0.00000000	      0.00000000	     -1.30301147	     -6.69106404	     -0.71729860	     89.91287458	    -19.13644686	     19.28305926	     52.88721964	     86.56644210	      0.00000000	      0.00000000	     89.93339893	    -20.27829122	     24.97022520	     48.53986312	     85.07862538	      0.00000000	      0.00000000
      4.37000000	    -30.46525097	      3.98553154	      2.41023103	     -0.32855405	      0.73736289	     -1.05971525	     25.50499474	    -12.62736325	     -4.32570142	     95.23983868	      1.66224876	    -34.51818038	      0.00000000	      0.00000000	     80.12076070	      5.07792357	    -11.45940206	     90.96289825	      1.58760207	     30.32158127	      0.00000000	      0.00000000	     -1.28185356	     -6.67873985	     -0.70099273	     89.91311314	    -19.09677889	     19.20660812	     52.90444422	     86.59090380	      0.00000000	      0.00000000	     89.93381636	    -20.24452511	     24.86284429	     48.59055243	     85.26306240	      0.00000000	      0.00000000
      4.37500000	    -30.52722374	      3.95157803	      2.39084110	     -0.32870032	      0.73698664	     -1.05963822	     25.60628017	    -12.55236643	     -4.24749224	     95.28087567	      1.66296499	    -34.55823230	      0.00000000	      0.00000000	     80.23913812	      5.07939826	    -11.38477463	     91.01761649	      1.58855709	     30.30601411	      0.00000000	      0.00000000	     -1.24864486	     -6.64848193	     -0.66929048	     89.91352049	    -19.07649285	     19.15141677	     52.93131056	     86.58844130	      0.00000000	      0.00000000	     89.93408256	    -20.20589673	     24.77233728	     48.65492546	     85.27187947	      0.00000000	      0.00000000
      4.38000000	    -30.56533748	      3.93615662	      2.44201672	     -0.32875798	      0.73664441	     -1.05963999	     25.63060878	    -12.52600557	     -4.22441616	     95.36751887	      1.66447720	    -34.10418915	      0.00000000	      0.00000000	     80.30662469	      5.14123866	    -11.33921133	     91.04823606	      1.58909150	     30.35993134	      0.00000000	      0.00000000	     -1.22882804	     -6.65100374	     -0.73193826	     89.91463889	    -19.05605164	     19.43835491	     52.86886814	     84.14004891	      0.00000000	      0.00000000	     89.93500861	    -20.10341951	     24.91522957	     48.61253162	     82.79568572	      0.00000000	      0.00000000
      4.38500000	    -30.56832415	      3.93641038	      2.43077079	     -0.32874225	      0.73640273	     -1.05960080	     25.65512643	    -12.51476441	     -4.17720920	     95.32920945	      1.66380858	    -34.50274339	      0.00000000	      0.00000000	     80.34526193	      5.15226877	    -11.32398630	     91.11242720	      1.59021184	     30.34891195	      0.00000000	      0.00000000	     -1.28743736	     -6.63160581	     -0.72650547	     89.91405281	    -18.99450248	     19.03723477	     52.94929350	     86.65820190	      0.00000000	      0.00000000	     89.93483261	    -20.14825591	     24.56939988	     48.77757489	     85.16685317	      0.00000000	      0.00000000
